<?xml version="1.0" encoding="UTF-8"?><svg id="svg2" xmlns="http://www.w3.org/2000/svg" viewBox="0 0 371 371"><defs><style>.cls-1{fill:#fff;}.cls-2{fill:purple;fill-rule:evenodd;}</style></defs><g id="_图层_1"><g id="g3050"><path id="path3052" class="cls-2" d="M185.5,61.13c68.68,0,124.37,55.69,124.37,124.36s-55.69,124.37-124.37,124.37-124.36-55.69-124.36-124.37S116.82,61.13,185.5,61.13h0Zm0-61.13c102.43,0,185.5,83.07,185.5,185.5s-83.07,185.5-185.5,185.5S0,287.93,0,185.5,83.07,0,185.5,0h0Zm0,7.57c98.25,0,177.93,79.68,177.93,177.93s-79.68,177.93-177.93,177.93S7.57,283.75,7.57,185.5c0-98.25,79.68-177.93,177.93-177.93h0Zm0,41.17c75.52,0,136.76,61.24,136.76,136.76s-61.24,136.76-136.76,136.76c-75.52,0-136.76-61.24-136.76-136.76S109.98,48.74,185.5,48.74h0Zm0,4.09c73.26,0,132.67,59.41,132.67,132.67s-59.41,132.67-132.67,132.67S52.83,258.76,52.83,185.5,112.24,52.83,185.5,52.83h0Z"/></g></g><path class="cls-1" d="M228.3,198.19c-15.73,0-28.93,11.25-32.31,26.22-8.04-3.47-15.39-2.54-20.98-.08-3.47-15.06-16.66-26.14-32.31-26.14-18.35,0-33.33,15.14-33.33,33.83s14.97,33.83,33.33,33.83,31.63-13.7,32.99-31.13c2.88-2.03,10.4-5.84,19.62,.17,1.52,17.34,15.56,30.96,32.99,30.96,18.35,0,33.33-15.14,33.33-33.83s-14.97-33.83-33.33-33.83m-85.6,58.02c-13.2,0-23.77-10.83-23.77-24.19s10.66-24.19,23.77-24.19,23.77,10.83,23.77,24.19-10.57,24.19-23.77,24.19m85.6,0c-13.2,0-23.77-10.83-23.77-24.19s10.57-24.19,23.77-24.19,23.85,10.83,23.85,24.19-10.74,24.19-23.85,24.19m41.78-79.17H100.91v12.69h169.17v-12.69m-54.73-66.57c-1.86-4.14-6.6-6.34-11.08-4.91l-18.78,6.26-18.86-6.26-.42-.08c-4.48-1.27-9.22,1.1-10.91,5.41l-20.55,53.46h101.5l-20.64-53.46-.25-.42Z"/></svg>